<svg width="34" height="34" viewBox="0 0 34 34" fill="none" xmlns="http://www.w3.org/2000/svg">
<path d="M31.1667 17.0001L24.0833 11.3334L24.0833 15.5834L11.3333 15.5834L11.3333 18.4167L24.0833 18.4167L24.0833 22.6667L31.1667 17.0001Z" fill="#E80F3C"/>
<path d="M15.5819 29.7514C17.2571 29.7561 18.9165 29.4283 20.4641 28.787C22.0117 28.1457 23.4166 27.2038 24.5976 26.0157L22.5944 24.0125C20.7216 25.8853 18.2311 26.9181 15.5819 26.9181C12.9327 26.9181 10.4422 25.8853 8.56941 24.0125C6.69658 22.1397 5.66383 19.6492 5.66383 17C5.66383 14.3508 6.69658 11.8603 8.56941 9.9875C10.4422 8.11467 12.9327 7.08192 15.5819 7.08192C18.2311 7.08192 20.7216 8.11467 22.5944 9.9875L24.5976 7.98434C22.1907 5.576 18.989 4.24859 15.5819 4.24859C12.1748 4.24859 8.97316 5.576 6.56625 7.98434C4.15791 10.3913 2.8305 13.5929 2.8305 17C2.83049 20.4071 4.15791 23.6087 6.56625 26.0157C7.74718 27.2038 9.15214 28.1457 10.6997 28.787C12.2473 29.4283 13.9067 29.7561 15.5819 29.7514Z" fill="#E80F3C"/>
</svg>
