<svg width="31" height="31" viewBox="0 0 31 31" fill="none" xmlns="http://www.w3.org/2000/svg">
<path d="M12.9167 17.5667L20.5375 9.94585C20.7743 9.70904 21.0757 9.59064 21.4417 9.59064C21.8076 9.59064 22.109 9.70904 22.3458 9.94585C22.5826 10.1827 22.701 10.484 22.701 10.85C22.701 11.216 22.5826 11.5174 22.3458 11.7542L13.8208 20.2792C13.5625 20.5375 13.2611 20.6667 12.9167 20.6667C12.5722 20.6667 12.2708 20.5375 12.0125 20.2792L8.65416 16.9208C8.41735 16.684 8.29895 16.3827 8.29895 16.0167C8.29895 15.6507 8.41735 15.3493 8.65416 15.1125C8.89096 14.8757 9.19235 14.7573 9.55833 14.7573C9.9243 14.7573 10.2257 14.8757 10.4625 15.1125L12.9167 17.5667Z" fill="white"/>
</svg>
