<svg width="30" height="30" viewBox="0 0 30 30" fill="none" xmlns="http://www.w3.org/2000/svg">
<path d="M11.25 15H15M18.75 15H15M15 15V11.25M15 15V18.75" stroke="#BDC0C9" stroke-width="1.875" stroke-linecap="round" stroke-linejoin="round"/>
<path d="M14.625 1.46651C14.8571 1.33253 15.1429 1.33253 15.375 1.46651L26.5328 7.90849C26.7649 8.04247 26.9078 8.29006 26.9078 8.55801V21.442C26.9078 21.7099 26.7649 21.9575 26.5328 22.0915L15.375 28.5335C15.1429 28.6675 14.8571 28.6675 14.625 28.5335L3.46715 22.0915C3.2351 21.9575 3.09215 21.7099 3.09215 21.442V8.55801C3.09215 8.29006 3.2351 8.04247 3.46715 7.90849L14.625 1.46651Z" stroke="#BDC0C9" stroke-width="1.875" stroke-linecap="round" stroke-linejoin="round"/>
</svg>
