<svg width="128" height="128" viewBox="0 0 128 128" fill="none" xmlns="http://www.w3.org/2000/svg">
<path d="M116.2 62.8999L59.8002 86.7999C55.5002 88.5999 50.7002 88.4999 46.6002 86.4999L18.8002 72.4999L15.2002 79.5999L43.1002 93.5999C46.4002 95.1999 50.0002 95.9999 53.6002 95.9999C56.8002 95.9999 60.0002 95.3999 62.9002 94.0999L119.3 70.2999C122.3 68.9999 124.6 66.5999 125.8 63.5999C127 60.4999 126.9 57.1999 125.5 54.1999C122.8 48.3999 115.7 45.6999 109.6 48.2999L106.1 49.7999L89.1002 56.9999L92.2002 64.3999L109.2 57.1999L112.7 55.6999C114.8 54.7999 117.3 55.5999 118.2 57.5999C118.7 58.5999 118.7 59.6999 118.3 60.6999C117.9 61.6999 117.2 62.4999 116.2 62.8999Z" fill="#BDC0C9"/>
<path d="M9 56.9001L18.4 49.1001C23.8 45.0001 30.4 43.2001 37.1 44.0001C39.8 44.3001 42.3 45.0001 44.7 46.1001L70.6 57.6001C71.3 57.9001 71.9 58.4001 72.3 59.1001C73 60.2001 73.1 61.6001 72.6 62.9001C72.4 63.3001 72.2 63.6001 72 63.9001C70.8 65.2001 69 65.6001 67.4 64.9001L47.4 56.0001L44.1 63.3001L64.1 72.2001C65.7 72.9001 67.4 73.3001 69 73.3001C72.4 73.3001 75.6 71.9001 78 69.2001C78.8 68.3001 79.5 67.3001 80 66.2001C81.6 62.5001 81.3 58.3001 79.2 54.9001C77.9 52.9001 76.1 51.3001 74 50.4001L48 38.8001C44.9 37.4001 41.5 36.5001 38.1 36.1001C29.3 35.1001 20.6 37.5001 13.6 42.8001L1 53.1001V97.0001H9V56.9001Z" fill="#BDC0C9"/>
</svg>
