<svg width="22" height="22" viewBox="0 0 22 22" fill="none" xmlns="http://www.w3.org/2000/svg">
<path d="M19.9883 9.20463H19.2499V9.16659H10.9999V12.8333H16.1805C15.4247 14.9677 13.3938 16.4999 10.9999 16.4999C7.96254 16.4999 5.49992 14.0373 5.49992 10.9999C5.49992 7.96254 7.96254 5.49992 10.9999 5.49992C12.402 5.49992 13.6775 6.02884 14.6487 6.89279L17.2415 4.3C15.6043 2.77421 13.4144 1.83325 10.9999 1.83325C5.93763 1.83325 1.83325 5.93763 1.83325 10.9999C1.83325 16.0622 5.93763 20.1666 10.9999 20.1666C16.0622 20.1666 20.1666 16.0622 20.1666 10.9999C20.1666 10.3853 20.1033 9.78534 19.9883 9.20463Z" fill="#FFC107"/>
<path d="M2.89014 6.73329L5.90184 8.942C6.71676 6.92442 8.69035 5.49992 10.9999 5.49992C12.4019 5.49992 13.6775 6.02883 14.6487 6.89279L17.2415 4.3C15.6043 2.77421 13.4144 1.83325 10.9999 1.83325C7.47897 1.83325 4.42555 3.82104 2.89014 6.73329Z" fill="#FF3D00"/>
<path d="M11 20.1667C13.3677 20.1667 15.5191 19.2606 17.1458 17.7871L14.3087 15.3863C13.3574 16.1097 12.1951 16.501 11 16.5001C8.61573 16.5001 6.59127 14.9798 5.82861 12.8582L2.83936 15.1613C4.35644 18.1299 7.43736 20.1667 11 20.1667Z" fill="#4CAF50"/>
<path d="M19.9884 9.20479H19.25V9.16675H11V12.8334H16.1805C15.819 13.8493 15.1678 14.737 14.3073 15.3868L14.3087 15.3859L17.1458 17.7866C16.945 17.969 20.1667 15.5834 20.1667 11.0001C20.1667 10.3855 20.1034 9.7855 19.9884 9.20479Z" fill="#1976D2"/>
</svg>
