<svg width="281" height="70" viewBox="0 0 281 70" fill="none" xmlns="http://www.w3.org/2000/svg">
<path d="M105.338 22.556L101.088 31.26C100.725 31.9853 100.34 32.5067 99.932 32.824C99.524 33.1187 99.0367 33.266 98.47 33.266C97.7447 33.266 97.1327 33.0167 96.634 32.518C96.1353 31.9967 95.4893 31.0673 94.696 29.73L90.752 22.556V32.178C90.752 33.1527 90.5253 33.8667 90.072 34.32C89.6413 34.7733 88.984 35 88.1 35C87.1027 35 86.3773 34.7847 85.924 34.354C85.4707 33.9007 85.244 33.028 85.244 31.736V16.912C85.244 15.1667 85.6407 13.852 86.434 12.968C87.2273 12.084 88.5647 11.642 90.446 11.642C91.1487 11.642 91.7607 11.7667 92.282 12.016C92.8033 12.2427 93.1887 12.5147 93.438 12.832C93.71 13.1267 93.9707 13.5007 94.22 13.954L98.776 23.916L103.604 14.124C104.443 12.492 105.95 11.676 108.126 11.676C109.146 11.676 110.019 11.8573 110.744 12.22C111.469 12.56 112.036 13.1267 112.444 13.92C112.875 14.6907 113.09 15.6653 113.09 16.844V31.634C113.067 33.878 111.651 35 108.84 35C107.82 35 106.981 34.728 106.324 34.184C105.689 33.6173 105.361 32.7107 105.338 31.464V22.556ZM125.523 35.204C122.758 35.204 120.469 34.49 118.655 33.062C116.865 31.634 115.969 29.6847 115.969 27.214C115.969 24.5393 116.853 22.4313 118.621 20.89C120.412 19.326 122.713 18.544 125.523 18.544C128.175 18.544 130.113 19.02 131.337 19.972C132.584 20.9013 133.207 22.182 133.207 23.814C133.207 24.1313 133.162 24.4373 133.071 24.732C133.003 25.0267 132.879 25.3213 132.697 25.616C132.539 25.888 132.312 26.1487 132.017 26.398C131.745 26.6247 131.428 26.84 131.065 27.044C130.703 27.2253 130.272 27.3727 129.773 27.486C129.275 27.5767 128.742 27.622 128.175 27.622L123.381 27.656C123.608 28.3813 124.016 28.9593 124.605 29.39C125.195 29.798 125.943 30.002 126.849 30.002C127.824 30.002 128.821 29.8773 129.841 29.628C130.272 29.5147 130.737 29.3333 131.235 29.084C131.757 28.8347 132.131 28.71 132.357 28.71C132.743 28.71 133.037 28.8233 133.241 29.05C133.468 29.2767 133.581 29.56 133.581 29.9C133.581 30.308 133.4 30.8067 133.037 31.396C132.675 31.9627 132.165 32.5407 131.507 33.13C130.873 33.6967 130.023 34.184 128.957 34.592C127.892 35 126.747 35.204 125.523 35.204ZM123.211 25.48C124.775 25.4573 125.625 25.446 125.761 25.446C126.101 25.446 126.351 25.242 126.509 24.834C126.623 24.5393 126.679 24.1313 126.679 23.61C126.679 22.182 126.249 21.468 125.387 21.468C125.07 21.468 124.753 21.638 124.435 21.978C124.141 22.318 123.88 22.8053 123.653 23.44C123.427 24.052 123.279 24.732 123.211 25.48ZM154.516 29.9C154.516 31.736 154.21 33.0507 153.598 33.844C152.986 34.6147 152.045 35 150.776 35C149.325 35 148.328 34.5467 147.784 33.64C146.311 34.7053 144.531 35.238 142.446 35.238C140.678 35.238 139.205 34.5127 138.026 33.062C136.847 31.5887 136.258 29.5827 136.258 27.044C136.258 24.46 136.836 22.4087 137.992 20.89C139.148 19.3487 140.633 18.578 142.446 18.578C144.078 18.578 145.608 19.0993 147.036 20.142V15.79C147.036 14.4073 147.376 13.3873 148.056 12.73C148.736 12.05 149.643 11.71 150.776 11.71C152.023 11.71 152.952 11.9593 153.564 12.458C154.199 12.9567 154.516 13.9653 154.516 15.484V29.9ZM147.104 30.104L147.07 23.746C146.685 23.1113 146.186 22.794 145.574 22.794C145.189 22.794 144.837 23.0093 144.52 23.44C144.225 23.8707 143.999 24.4033 143.84 25.038C143.681 25.6727 143.602 26.3413 143.602 27.044C143.602 28.0867 143.772 29.016 144.112 29.832C144.452 30.648 144.928 31.056 145.54 31.056C145.653 31.056 145.767 31.0447 145.88 31.022C145.993 30.9993 146.095 30.9767 146.186 30.954C146.277 30.9087 146.367 30.8633 146.458 30.818C146.549 30.75 146.628 30.682 146.696 30.614C146.764 30.546 146.832 30.4667 146.9 30.376C146.968 30.2853 147.036 30.1947 147.104 30.104ZM168.626 26.942C168.626 25.7633 168.479 24.732 168.184 23.848C167.889 22.9413 167.459 22.488 166.892 22.488C166.507 22.488 166.167 22.7147 165.872 23.168C165.577 23.6213 165.362 24.1767 165.226 24.834C165.09 25.4913 165.022 26.194 165.022 26.942C165.022 28.098 165.181 29.118 165.498 30.002C165.815 30.8633 166.269 31.294 166.858 31.294C167.447 31.294 167.889 30.8633 168.184 30.002C168.479 29.1407 168.626 28.1207 168.626 26.942ZM166.858 35.238C165.09 35.238 163.492 34.9207 162.064 34.286C160.659 33.6513 159.525 32.6993 158.664 31.43C157.825 30.1607 157.406 28.676 157.406 26.976C157.406 24.392 158.29 22.3407 160.058 20.822C161.826 19.3033 164.093 18.544 166.858 18.544C169.623 18.544 171.879 19.3033 173.624 20.822C175.369 22.3407 176.242 24.392 176.242 26.976C176.242 29.5373 175.347 31.5547 173.556 33.028C171.788 34.5013 169.555 35.238 166.858 35.238ZM195.771 20.176C197.267 19.0653 198.888 18.51 200.633 18.51C202.401 18.51 203.875 19.258 205.053 20.754C206.232 22.25 206.821 24.1427 206.821 26.432C206.821 29.1973 205.926 31.362 204.135 32.926C202.345 34.4673 200.021 35.238 197.165 35.238C195.42 35.238 193.89 34.9887 192.575 34.49C191.283 33.9913 190.263 33.2433 189.515 32.246C188.79 31.2487 188.416 30.0473 188.393 28.642L188.325 15.824C188.325 14.4187 188.665 13.3873 189.345 12.73C190.025 12.0727 190.932 11.744 192.065 11.744C193.335 11.744 194.264 12.05 194.853 12.662C195.465 13.2513 195.771 14.2033 195.771 15.518V20.176ZM195.805 29.798C196.213 30.5687 196.78 30.954 197.505 30.954C198.117 30.954 198.593 30.5687 198.933 29.798C199.273 29.0273 199.443 28.1433 199.443 27.146C199.443 26.602 199.398 26.0693 199.307 25.548C199.217 25.0267 199.092 24.562 198.933 24.154C198.775 23.7233 198.571 23.3833 198.321 23.134C198.072 22.862 197.789 22.726 197.471 22.726C196.769 22.726 196.213 23.1453 195.805 23.984C195.805 24.2787 195.805 25.1287 195.805 26.534C195.805 27.9167 195.805 29.0047 195.805 29.798ZM217.12 29.866C217.12 31.702 216.814 33.0167 216.202 33.81C215.59 34.6033 214.65 35 213.38 35C212.111 35 211.182 34.6487 210.592 33.946C210.003 33.2207 209.708 31.9513 209.708 30.138L209.64 15.79C209.64 15.2007 209.697 14.6793 209.81 14.226C209.946 13.7727 210.116 13.3873 210.32 13.07C210.547 12.7527 210.819 12.492 211.136 12.288C211.454 12.084 211.794 11.9367 212.156 11.846C212.542 11.7553 212.95 11.71 213.38 11.71C214.627 11.71 215.556 11.9593 216.168 12.458C216.803 12.9567 217.12 13.9653 217.12 15.484V29.866ZM231.214 26.942C231.214 25.7633 231.067 24.732 230.772 23.848C230.477 22.9413 230.047 22.488 229.48 22.488C229.095 22.488 228.755 22.7147 228.46 23.168C228.165 23.6213 227.95 24.1767 227.814 24.834C227.678 25.4913 227.61 26.194 227.61 26.942C227.61 28.098 227.769 29.118 228.086 30.002C228.403 30.8633 228.857 31.294 229.446 31.294C230.035 31.294 230.477 30.8633 230.772 30.002C231.067 29.1407 231.214 28.1207 231.214 26.942ZM229.446 35.238C227.678 35.238 226.08 34.9207 224.652 34.286C223.247 33.6513 222.113 32.6993 221.252 31.43C220.413 30.1607 219.994 28.676 219.994 26.976C219.994 24.392 220.878 22.3407 222.646 20.822C224.414 19.3033 226.681 18.544 229.446 18.544C232.211 18.544 234.467 19.3033 236.212 20.822C237.957 22.3407 238.83 24.392 238.83 26.976C238.83 29.5373 237.935 31.5547 236.144 33.028C234.376 34.5013 232.143 35.238 229.446 35.238ZM251.745 22.284C251.745 21.7627 251.451 21.502 250.861 21.502C250.431 21.502 250.045 21.74 249.705 22.216C249.365 22.692 249.105 23.2927 248.923 24.018C248.742 24.7207 248.651 25.4573 248.651 26.228C248.651 27.3613 248.991 28.2793 249.671 28.982C250.374 29.6847 251.315 30.036 252.493 30.036C253.649 30.036 254.647 29.9 255.485 29.628C255.825 29.5373 256.233 29.3673 256.709 29.118C257.208 28.8687 257.559 28.744 257.763 28.744C258.081 28.744 258.341 28.8007 258.545 28.914C258.749 29.0273 258.885 29.1633 258.953 29.322C259.044 29.4807 259.089 29.6507 259.089 29.832C259.089 30.1493 258.976 30.5347 258.749 30.988C258.545 31.4413 258.217 31.9173 257.763 32.416C257.31 32.9147 256.777 33.3793 256.165 33.81C255.576 34.218 254.839 34.558 253.955 34.83C253.071 35.102 252.142 35.238 251.167 35.238C248.357 35.238 246.045 34.49 244.231 32.994C242.418 31.4753 241.511 29.4013 241.511 26.772C241.511 25.0947 241.919 23.6327 242.735 22.386C243.574 21.1167 244.719 20.1647 246.169 19.53C247.62 18.8727 249.286 18.544 251.167 18.544C252.958 18.544 254.431 18.7593 255.587 19.19C256.766 19.598 257.605 20.1533 258.103 20.856C258.602 21.5587 258.851 22.3973 258.851 23.372C258.851 23.8027 258.761 24.2447 258.579 24.698C258.421 25.1513 258.16 25.6047 257.797 26.058C257.457 26.5113 256.947 26.8853 256.267 27.18C255.587 27.452 254.794 27.588 253.887 27.588C253.479 27.588 253.139 27.5653 252.867 27.52C252.618 27.4747 252.346 27.384 252.051 27.248C251.779 27.0893 251.575 26.84 251.439 26.5C251.303 26.16 251.235 25.7293 251.235 25.208C251.235 24.7547 251.315 24.2107 251.473 23.576C251.655 22.9187 251.745 22.488 251.745 22.284ZM270.739 30.172H269.515C269.515 31.3507 269.175 32.45 268.495 33.47C267.815 34.49 266.908 35 265.775 35C264.505 35 263.565 34.6487 262.953 33.946C262.363 33.2207 262.069 31.9513 262.069 30.138V16.164C262.069 15.1893 262.227 14.4073 262.545 13.818C262.862 13.206 263.27 12.7753 263.769 12.526C264.29 12.2767 264.959 12.1293 265.775 12.084C267.18 12.084 268.121 12.56 268.597 13.512C269.073 14.4413 269.311 16.062 269.311 18.374C269.311 20.1647 269.209 21.74 269.005 23.1C269.163 23.5987 269.673 23.848 270.535 23.848C271.079 23.848 271.441 23.7347 271.623 23.508C271.827 23.2587 271.929 22.7713 271.929 22.046C271.929 20.9807 272.201 20.21 272.745 19.734C273.311 19.258 274.263 19.02 275.601 19.02C277.006 19.02 277.947 19.2807 278.423 19.802C278.921 20.3007 279.171 21.2187 279.171 22.556C279.171 23.9613 278.751 25.0493 277.913 25.82C277.074 26.5907 276.133 26.976 275.091 26.976C276.156 26.976 277.097 27.3047 277.913 27.962C278.751 28.5967 279.171 29.56 279.171 30.852C279.171 32.5747 278.933 33.6967 278.457 34.218C278.003 34.7393 277.051 35 275.601 35C274.263 35 273.311 34.762 272.745 34.286C272.201 33.7873 271.929 33.0167 271.929 31.974C271.929 31.4527 271.883 31.0673 271.793 30.818C271.702 30.546 271.577 30.376 271.419 30.308C271.283 30.2173 271.056 30.172 270.739 30.172Z" fill="#F2F2F2"/>
<rect x="56.127" y="6" width="11.1544" height="69.3925" rx="5.57719" transform="rotate(42.7763 56.127 6)" fill="#EB5757"/>
<rect x="63.4341" y="19" width="9.57029" height="59.5377" rx="4.78514" transform="rotate(42.7763 63.4341 19)" fill="#EB5757"/>
<rect x="42.4341" width="9.57029" height="59.5377" rx="4.78514" transform="rotate(42.7763 42.4341 0)" fill="#EB5757"/>
<rect x="25.0039" width="9.57029" height="36.8169" rx="4.78514" transform="rotate(42.7763 25.0039 0)" fill="#EB5757"/>
<rect x="65.0039" y="36" width="9.57029" height="36.8169" rx="4.78514" transform="rotate(42.7763 65.0039 36)" fill="#EB5757"/>
<path d="M143.45 55.28C143.105 55.0187 142.885 54.818 142.792 54.678C142.699 54.5287 142.643 54.3513 142.624 54.146C142.605 53.978 142.605 53.7493 142.624 53.46C142.652 53.1707 142.685 52.886 142.722 52.606C142.759 52.326 142.792 52.116 142.82 51.976C142.867 51.9293 142.885 51.8687 142.876 51.794C142.876 51.71 142.876 51.668 142.876 51.668C142.867 51.6213 142.899 51.5 142.974 51.304C143.049 51.0987 143.119 50.8373 143.184 50.52C143.371 49.96 143.548 49.4933 143.716 49.12C143.893 48.7373 144.066 48.4107 144.234 48.14C144.402 47.8693 144.57 47.622 144.738 47.398C145.121 47.006 145.429 46.712 145.662 46.516C145.895 46.3107 146.157 46.1427 146.446 46.012C146.633 45.9 146.805 45.8113 146.964 45.746C147.123 45.6807 147.253 45.6713 147.356 45.718C147.879 45.83 148.271 46.0447 148.532 46.362C148.793 46.67 148.985 47.1507 149.106 47.804C149.171 48.2147 149.209 48.588 149.218 48.924C149.237 49.2507 149.213 49.5773 149.148 49.904C149.083 50.2213 148.961 50.5713 148.784 50.954C148.616 51.3367 148.378 51.7847 148.07 52.298C147.743 52.942 147.375 53.502 146.964 53.978C146.563 54.454 146.147 54.8273 145.718 55.098C145.298 55.378 144.887 55.5367 144.486 55.574C144.094 55.6113 143.749 55.5133 143.45 55.28ZM144.346 54.874C144.561 54.846 144.766 54.7807 144.962 54.678C145.158 54.5753 145.363 54.426 145.578 54.23C145.793 54.0247 146.035 53.768 146.306 53.46C146.549 53.18 146.745 52.9467 146.894 52.76C147.053 52.564 147.183 52.368 147.286 52.172C147.398 51.976 147.501 51.738 147.594 51.458C147.697 51.178 147.813 50.814 147.944 50.366C148.019 50.086 148.075 49.8527 148.112 49.666C148.149 49.4793 148.173 49.3067 148.182 49.148C148.191 48.98 148.191 48.7887 148.182 48.574C148.182 48.3593 148.182 48.084 148.182 47.748C148.173 47.5893 148.14 47.426 148.084 47.258C148.028 47.0807 147.963 46.95 147.888 46.866C147.795 46.7633 147.664 46.6933 147.496 46.656C147.328 46.6093 147.141 46.6327 146.936 46.726C146.824 46.7727 146.679 46.88 146.502 47.048C146.325 47.2067 146.138 47.3933 145.942 47.608C145.746 47.8227 145.559 48.042 145.382 48.266C145.214 48.49 145.074 48.6907 144.962 48.868C144.859 49.036 144.808 49.1527 144.808 49.218C144.808 49.218 144.803 49.2413 144.794 49.288C144.794 49.3347 144.775 49.3813 144.738 49.428C144.617 49.5587 144.481 49.792 144.332 50.128C144.192 50.464 144.057 50.8467 143.926 51.276C143.795 51.696 143.683 52.116 143.59 52.536C143.506 52.9467 143.455 53.306 143.436 53.614C143.417 53.866 143.408 54.0387 143.408 54.132C143.408 54.2253 143.427 54.3 143.464 54.356C143.501 54.4027 143.562 54.496 143.646 54.636C143.702 54.7293 143.795 54.7993 143.926 54.846C144.066 54.8927 144.206 54.902 144.346 54.874ZM154.301 54.356C154.115 54.356 153.961 54.3187 153.839 54.244C153.718 54.16 153.615 54.0247 153.531 53.838C153.494 53.7073 153.461 53.5627 153.433 53.404C153.415 53.236 153.405 53.082 153.405 52.942C153.405 52.7927 153.419 52.6947 153.447 52.648C153.485 52.6107 153.499 52.5453 153.489 52.452C153.489 52.3493 153.489 52.242 153.489 52.13C153.48 51.9433 153.433 51.8407 153.349 51.822C153.275 51.794 153.163 51.822 153.013 51.906C152.845 52.0087 152.626 52.1487 152.355 52.326C152.085 52.494 151.8 52.6807 151.501 52.886C151.212 53.0913 150.937 53.306 150.675 53.53C150.47 53.754 150.344 53.9267 150.297 54.048C150.26 54.16 150.204 54.216 150.129 54.216C150.055 54.2533 149.989 54.258 149.933 54.23C149.887 54.1927 149.817 54.1367 149.723 54.062C149.658 53.9873 149.593 53.9173 149.527 53.852C149.462 53.7773 149.42 53.7213 149.401 53.684C149.401 53.6373 149.415 53.5393 149.443 53.39C149.471 53.2407 149.504 53.0913 149.541 52.942C149.588 52.7927 149.621 52.6947 149.639 52.648C149.686 52.648 149.723 52.6013 149.751 52.508C149.789 52.4147 149.845 52.312 149.919 52.2C149.938 52.088 149.985 51.9387 150.059 51.752C150.143 51.556 150.218 51.3833 150.283 51.234C150.414 51.01 150.503 50.8233 150.549 50.674C150.605 50.5247 150.643 50.338 150.661 50.114C150.652 50.0767 150.661 50.044 150.689 50.016C150.717 49.9787 150.75 49.96 150.787 49.96C150.862 49.8853 150.951 49.8667 151.053 49.904C151.156 49.932 151.249 50.002 151.333 50.114C151.501 50.338 151.567 50.5713 151.529 50.814C151.501 51.0473 151.352 51.3833 151.081 51.822C151.016 51.9713 150.965 52.088 150.927 52.172C150.899 52.2467 150.885 52.3073 150.885 52.354C150.885 52.354 150.932 52.3213 151.025 52.256C151.128 52.1907 151.24 52.116 151.361 52.032C151.492 51.9387 151.595 51.8687 151.669 51.822C151.716 51.7753 151.823 51.6913 151.991 51.57C152.159 51.4487 152.337 51.332 152.523 51.22C152.719 51.0987 152.864 51.0287 152.957 51.01C153.032 50.9727 153.111 50.94 153.195 50.912C153.279 50.8747 153.34 50.856 153.377 50.856C153.452 50.856 153.545 50.898 153.657 50.982C153.779 51.0567 153.891 51.15 153.993 51.262C154.096 51.3647 154.157 51.4533 154.175 51.528C154.175 51.5653 154.175 51.6027 154.175 51.64C154.185 51.6773 154.194 51.7147 154.203 51.752C154.241 51.8733 154.259 52.0367 154.259 52.242C154.269 52.4473 154.264 52.634 154.245 52.802C154.227 52.97 154.194 53.068 154.147 53.096C154.147 53.096 154.147 53.11 154.147 53.138C154.157 53.1567 154.18 53.166 154.217 53.166C154.217 53.2033 154.217 53.2267 154.217 53.236C154.171 53.236 154.152 53.278 154.161 53.362C154.171 53.4367 154.199 53.5207 154.245 53.614C154.301 53.7073 154.357 53.782 154.413 53.838C154.525 53.95 154.572 54.0573 154.553 54.16C154.535 54.2533 154.451 54.3187 154.301 54.356ZM160.131 54.58C160.009 54.608 159.897 54.608 159.795 54.58C159.692 54.552 159.599 54.5053 159.515 54.44C159.431 54.3747 159.356 54.3093 159.291 54.244C159.225 54.1693 159.207 54.104 159.235 54.048C159.263 53.9827 159.309 53.95 159.375 53.95C159.412 53.95 159.435 53.9127 159.445 53.838C159.463 53.754 159.482 53.6047 159.501 53.39C159.519 53.2593 159.543 53.1473 159.571 53.054C159.608 52.9513 159.627 52.8813 159.627 52.844C159.636 52.816 159.645 52.7413 159.655 52.62C159.673 52.4893 159.701 52.3773 159.739 52.284C159.776 52.116 159.832 51.9013 159.907 51.64C159.981 51.3693 160.056 51.108 160.131 50.856C160.215 50.5947 160.28 50.394 160.327 50.254C160.345 50.1513 160.387 50.0207 160.453 49.862C160.518 49.7033 160.574 49.5773 160.621 49.484C160.714 49.2227 160.835 48.91 160.985 48.546C161.143 48.182 161.302 47.818 161.461 47.454C161.619 47.09 161.759 46.782 161.881 46.53C162.011 46.2687 162.095 46.11 162.133 46.054C162.207 45.9793 162.296 45.9467 162.399 45.956C162.511 45.9653 162.618 46.0213 162.721 46.124C162.805 46.2267 162.842 46.3387 162.833 46.46C162.823 46.572 162.763 46.6933 162.651 46.824C162.613 46.8893 162.571 46.9733 162.525 47.076C162.478 47.1693 162.431 47.2487 162.385 47.314C162.31 47.538 162.217 47.7573 162.105 47.972C162.002 48.1867 161.89 48.4293 161.769 48.7C161.647 48.9613 161.517 49.288 161.377 49.68C161.293 49.8573 161.223 50.0347 161.167 50.212C161.111 50.38 161.064 50.4873 161.027 50.534C160.971 50.7393 160.901 50.954 160.817 51.178C160.733 51.3927 160.672 51.612 160.635 51.836C160.635 51.836 160.681 51.7893 160.775 51.696C160.877 51.6027 160.999 51.486 161.139 51.346C161.503 50.954 161.867 50.632 162.231 50.38C162.604 50.128 162.912 49.9973 163.155 49.988C163.285 49.9787 163.425 50.0113 163.575 50.086C163.733 50.1607 163.878 50.254 164.009 50.366C164.139 50.4687 164.228 50.5807 164.275 50.702C164.349 50.87 164.377 51.052 164.359 51.248C164.349 51.4347 164.293 51.6353 164.191 51.85C164.097 52.0553 163.967 52.2653 163.799 52.48C163.696 52.6573 163.57 52.83 163.421 52.998C163.281 53.1567 163.159 53.2733 163.057 53.348C162.963 53.432 162.87 53.516 162.777 53.6C162.693 53.6747 162.623 53.7353 162.567 53.782C162.445 53.866 162.347 53.9313 162.273 53.978C162.198 54.0153 162.095 54.0573 161.965 54.104C161.769 54.244 161.498 54.3467 161.153 54.412C160.807 54.4773 160.467 54.5333 160.131 54.58ZM160.495 53.866C160.56 53.866 160.677 53.852 160.845 53.824C161.022 53.796 161.185 53.726 161.335 53.614C161.773 53.39 162.151 53.1147 162.469 52.788C162.786 52.452 163.024 52.1207 163.183 51.794C163.351 51.458 163.425 51.1827 163.407 50.968C163.388 50.7533 163.225 50.7067 162.917 50.828C162.609 50.9493 162.235 51.2293 161.797 51.668C161.591 51.8547 161.395 52.0553 161.209 52.27C161.031 52.4753 160.863 52.6713 160.705 52.858C160.639 52.9607 160.583 53.0493 160.537 53.124C160.499 53.1987 160.476 53.2733 160.467 53.348C160.392 53.6933 160.401 53.866 160.495 53.866ZM165.137 55.126C165.015 55.0793 164.927 55.0093 164.871 54.916C164.815 54.8133 164.782 54.6687 164.773 54.482C164.773 54.37 164.791 54.2207 164.829 54.034C164.866 53.8473 164.908 53.6327 164.955 53.39C164.955 53.3713 164.955 53.3527 164.955 53.334C164.964 53.306 164.969 53.2873 164.969 53.278C164.978 53.2407 164.987 53.1847 164.997 53.11C165.015 53.0353 165.029 52.9793 165.039 52.942C165.048 52.8953 165.053 52.8953 165.053 52.942L165.151 52.564C165.197 52.396 165.244 52.228 165.291 52.06C165.337 51.892 165.379 51.7473 165.417 51.626C165.454 51.4953 165.477 51.4207 165.487 51.402C165.487 51.402 165.505 51.3507 165.543 51.248C165.58 51.136 165.617 51.0287 165.655 50.926C165.813 50.4873 165.958 50.1187 166.089 49.82C166.219 49.512 166.336 49.288 166.439 49.148C166.448 49.12 166.462 49.0873 166.481 49.05C166.499 49.0033 166.513 48.966 166.523 48.938C166.532 48.8633 166.541 48.8073 166.551 48.77C166.569 48.7233 166.593 48.6813 166.621 48.644C166.639 48.6067 166.667 48.56 166.705 48.504C166.742 48.4387 166.784 48.3593 166.831 48.266L166.887 48.112C166.943 47.9907 167.013 47.8553 167.097 47.706C167.181 47.5567 167.241 47.4493 167.279 47.384C167.316 47.3 167.372 47.202 167.447 47.09C167.521 46.9687 167.577 46.8893 167.615 46.852L167.601 46.838C167.647 46.754 167.703 46.7073 167.769 46.698C167.843 46.6793 167.923 46.67 168.007 46.67C168.137 46.67 168.212 46.6887 168.231 46.726C168.249 46.7633 168.259 46.8473 168.259 46.978C168.259 47.118 168.254 47.2207 168.245 47.286C168.245 47.342 168.207 47.4073 168.133 47.482H168.147C168.165 47.4633 168.161 47.4867 168.133 47.552C168.105 47.608 168.081 47.65 168.063 47.678C168.044 47.7247 168.021 47.776 167.993 47.832C167.974 47.888 167.951 47.93 167.923 47.958C167.895 47.9953 167.825 48.1213 167.713 48.336C167.61 48.5413 167.489 48.784 167.349 49.064C167.218 49.344 167.092 49.6147 166.971 49.876C166.849 50.1373 166.761 50.338 166.705 50.478L166.635 50.688C166.616 50.7253 166.607 50.7533 166.607 50.772C166.579 50.8373 166.551 50.9027 166.523 50.968C166.495 51.0333 166.467 51.0893 166.439 51.136L166.201 51.948L166.131 52.242L166.005 52.55L165.921 52.816C165.902 52.872 165.888 52.9233 165.879 52.97C165.869 53.0167 165.851 53.054 165.823 53.082C165.823 53.0913 165.818 53.1053 165.809 53.124C165.809 53.1333 165.809 53.1427 165.809 53.152C165.771 53.3013 165.729 53.5113 165.683 53.782C165.636 54.0527 165.603 54.3373 165.585 54.636C165.585 54.6453 165.58 54.6547 165.571 54.664C165.571 54.6733 165.571 54.6827 165.571 54.692C165.543 54.888 165.496 55.0187 165.431 55.084C165.365 55.1493 165.267 55.1633 165.137 55.126ZM168.454 54.79C168.333 54.79 168.235 54.7667 168.16 54.72C168.095 54.6733 168.011 54.608 167.908 54.524C167.731 54.3373 167.605 54.16 167.53 53.992C167.455 53.8147 167.432 53.6467 167.46 53.488C167.488 53.4133 167.497 53.3433 167.488 53.278C167.488 53.2033 167.488 53.166 167.488 53.166C167.441 53.1193 167.427 53.0913 167.446 53.082C167.465 53.0633 167.483 53.0353 167.502 52.998C167.558 52.998 167.577 52.9467 167.558 52.844C167.539 52.7693 167.577 52.606 167.67 52.354C167.763 52.102 167.88 51.864 168.02 51.64C168.076 51.5467 168.16 51.4253 168.272 51.276C168.384 51.1173 168.505 50.9633 168.636 50.814C168.776 50.6553 168.902 50.5293 169.014 50.436C169.247 50.24 169.453 50.0953 169.63 50.002C169.807 49.9087 169.999 49.8387 170.204 49.792C170.409 49.7453 170.549 49.722 170.624 49.722C170.708 49.722 170.82 49.7967 170.96 49.946C171.175 50.0393 171.329 50.1513 171.422 50.282C171.525 50.4127 171.59 50.604 171.618 50.856C171.646 51.136 171.623 51.458 171.548 51.822C171.483 52.1767 171.263 52.62 170.89 53.152C170.657 53.488 170.442 53.74 170.246 53.908C170.05 54.0667 169.817 54.2253 169.546 54.384C169.35 54.5147 169.173 54.6127 169.014 54.678C168.855 54.734 168.669 54.7713 168.454 54.79ZM169.798 53.306C170.022 53.054 170.199 52.816 170.33 52.592C170.47 52.368 170.601 52.0833 170.722 51.738C170.759 51.6353 170.783 51.5093 170.792 51.36C170.801 51.2013 170.797 51.0567 170.778 50.926C170.769 50.786 170.736 50.7067 170.68 50.688C170.568 50.6227 170.433 50.604 170.274 50.632C170.115 50.6507 169.943 50.7393 169.756 50.898C169.467 51.1407 169.215 51.444 169 51.808C168.785 52.1627 168.575 52.5687 168.37 53.026C168.23 53.362 168.197 53.6327 168.272 53.838C168.356 54.034 168.529 54.104 168.79 54.048C169.061 53.9827 169.397 53.7353 169.798 53.306ZM173.949 54.846C173.679 54.8927 173.431 54.8787 173.207 54.804C172.983 54.72 172.801 54.5847 172.661 54.398C172.531 54.202 172.465 53.9547 172.465 53.656C172.437 53.376 172.47 53.054 172.563 52.69C172.657 52.3167 172.792 51.9433 172.969 51.57C173.156 51.1967 173.357 50.8747 173.571 50.604C173.758 50.38 173.945 50.1747 174.131 49.988C174.318 49.8013 174.486 49.6753 174.635 49.61C174.766 49.554 174.887 49.5213 174.999 49.512C175.121 49.4933 175.219 49.484 175.293 49.484C175.443 49.5213 175.601 49.5913 175.769 49.694C175.947 49.7873 176.035 49.89 176.035 50.002C176.035 50.002 176.045 50.016 176.063 50.044C176.091 50.0627 176.105 50.072 176.105 50.072C176.161 50.072 176.208 50.1327 176.245 50.254C176.292 50.3753 176.32 50.5153 176.329 50.674C176.339 50.8233 176.315 50.9493 176.259 51.052C176.222 51.2293 176.157 51.3833 176.063 51.514C175.97 51.6447 175.886 51.71 175.811 51.71C175.774 51.71 175.737 51.7147 175.699 51.724C175.671 51.724 175.657 51.7473 175.657 51.794C175.657 51.8407 175.629 51.8593 175.573 51.85C175.527 51.8407 175.475 51.8127 175.419 51.766C175.363 51.71 175.321 51.6447 175.293 51.57C175.293 51.5233 175.312 51.444 175.349 51.332C175.387 51.22 175.424 51.0753 175.461 50.898C175.517 50.6367 175.513 50.4687 175.447 50.394C175.382 50.31 175.256 50.3053 175.069 50.38C174.836 50.5107 174.612 50.6927 174.397 50.926C174.192 51.1593 174.001 51.4627 173.823 51.836C173.646 52.2 173.487 52.6573 173.347 53.208C173.291 53.4227 173.268 53.6093 173.277 53.768C173.296 53.9267 173.319 54.0107 173.347 54.02C173.478 54.0573 173.655 54.0667 173.879 54.048C174.103 54.02 174.267 53.978 174.369 53.922C174.519 53.8473 174.687 53.7493 174.873 53.628C175.06 53.4973 175.223 53.3807 175.363 53.278C175.41 53.25 175.466 53.2033 175.531 53.138C175.597 53.0727 175.667 53.0213 175.741 52.984C175.816 52.872 175.881 52.8067 175.937 52.788C175.993 52.7693 176.077 52.76 176.189 52.76C176.264 52.7787 176.334 52.8067 176.399 52.844C176.465 52.8813 176.507 52.9187 176.525 52.956C176.553 52.9933 176.539 53.026 176.483 53.054C176.446 53.054 176.423 53.068 176.413 53.096C176.413 53.1147 176.413 53.124 176.413 53.124C176.432 53.1613 176.39 53.2407 176.287 53.362C176.194 53.474 176.073 53.6 175.923 53.74C175.774 53.88 175.629 54.0013 175.489 54.104C175.359 54.1973 175.265 54.244 175.209 54.244C175.116 54.244 175.069 54.272 175.069 54.328C175.069 54.3467 174.999 54.3933 174.859 54.468C174.729 54.5427 174.575 54.6173 174.397 54.692C174.229 54.7667 174.08 54.818 173.949 54.846ZM177.498 54.692C177.405 54.6267 177.335 54.566 177.288 54.51C177.241 54.454 177.223 54.3747 177.232 54.272C177.251 54.132 177.279 53.9873 177.316 53.838C177.353 53.6793 177.4 53.5253 177.456 53.376C177.484 53.208 177.517 53.04 177.554 52.872C177.601 52.704 177.675 52.5453 177.778 52.396C177.899 52.0507 178.025 51.71 178.156 51.374C178.287 51.0287 178.399 50.6693 178.492 50.296C178.632 49.96 178.758 49.6613 178.87 49.4C178.991 49.1387 179.136 48.8027 179.304 48.392C179.397 48.1773 179.477 47.9393 179.542 47.678C179.617 47.4073 179.729 47.1693 179.878 46.964C179.943 46.88 179.99 46.81 180.018 46.754C180.055 46.6887 180.093 46.628 180.13 46.572C180.149 46.516 180.209 46.4973 180.312 46.516C180.424 46.5347 180.503 46.5767 180.55 46.642C180.597 46.6327 180.653 46.6933 180.718 46.824C180.783 46.9547 180.807 47.0573 180.788 47.132C180.788 47.2347 180.751 47.3467 180.676 47.468C180.639 47.5053 180.601 47.5613 180.564 47.636C180.527 47.7013 180.471 47.79 180.396 47.902C180.359 48.0233 180.321 48.1447 180.284 48.266C180.247 48.3873 180.205 48.4993 180.158 48.602C180.111 48.7047 180.06 48.8073 180.004 48.91C179.948 49.0127 179.911 49.0967 179.892 49.162C179.808 49.3767 179.715 49.5867 179.612 49.792C179.519 49.988 179.435 50.198 179.36 50.422C179.285 50.6367 179.206 50.8653 179.122 51.108C179.047 51.3413 178.945 51.5653 178.814 51.78C178.749 51.8733 178.697 51.9993 178.66 52.158C178.623 52.3167 178.585 52.4707 178.548 52.62C178.483 52.788 178.422 52.942 178.366 53.082C178.319 53.222 178.296 53.3107 178.296 53.348C178.231 53.5533 178.179 53.7587 178.142 53.964C178.105 54.16 178.044 54.3327 177.96 54.482C177.951 54.622 177.909 54.7153 177.834 54.762C177.769 54.8087 177.657 54.7853 177.498 54.692ZM180.844 54.916C180.695 54.8973 180.583 54.8693 180.508 54.832C180.433 54.7853 180.293 54.6873 180.088 54.538C179.976 54.426 179.822 54.2533 179.626 54.02C179.43 53.7867 179.234 53.5393 179.038 53.278C178.842 53.0073 178.679 52.7787 178.548 52.592L179.122 51.822C179.243 51.9713 179.341 52.1113 179.416 52.242C179.491 52.3727 179.551 52.4613 179.598 52.508C179.813 52.8253 179.981 53.082 180.102 53.278C180.233 53.474 180.349 53.6327 180.452 53.754C180.555 53.8753 180.662 53.9827 180.774 54.076C180.895 54.1693 181.045 54.2673 181.222 54.37C181.25 54.3887 181.278 54.4167 181.306 54.454C181.334 54.4913 181.343 54.5473 181.334 54.622C181.297 54.7247 181.255 54.79 181.208 54.818C181.171 54.8367 181.049 54.8693 180.844 54.916ZM178.506 52.438C178.45 52.2793 178.469 52.1207 178.562 51.962C178.665 51.794 178.777 51.6773 178.898 51.612C178.935 51.5467 178.973 51.5047 179.01 51.486C179.057 51.458 179.085 51.4253 179.094 51.388C179.113 51.3507 179.159 51.2993 179.234 51.234C179.318 51.1687 179.393 51.108 179.458 51.052C179.607 50.9587 179.775 50.8467 179.962 50.716C180.158 50.576 180.345 50.436 180.522 50.296C180.699 50.156 180.849 50.0347 180.97 49.932C181.101 49.8293 181.18 49.764 181.208 49.736C181.236 49.6987 181.273 49.6753 181.32 49.666C181.376 49.6473 181.446 49.6567 181.53 49.694C181.642 49.722 181.717 49.7687 181.754 49.834C181.791 49.89 181.81 50.002 181.81 50.17C181.838 50.2727 181.796 50.3847 181.684 50.506C181.581 50.618 181.423 50.744 181.208 50.884C181.133 50.9307 181.031 51.0007 180.9 51.094C180.779 51.1873 180.671 51.276 180.578 51.36C180.513 51.3973 180.415 51.4627 180.284 51.556C180.163 51.64 180.055 51.724 179.962 51.808C179.887 51.8547 179.789 51.9387 179.668 52.06C179.547 52.172 179.425 52.256 179.304 52.312C179.005 52.592 178.809 52.7413 178.716 52.76C178.623 52.7787 178.553 52.6713 178.506 52.438ZM184.529 54.636C184.408 54.692 184.268 54.7153 184.109 54.706C183.951 54.6967 183.736 54.6453 183.465 54.552C183.447 54.552 183.405 54.5333 183.339 54.496C183.283 54.4587 183.223 54.412 183.157 54.356C183.101 54.2907 183.055 54.2207 183.017 54.146C182.868 53.9313 182.807 53.614 182.835 53.194C182.863 52.774 182.994 52.27 183.227 51.682C183.293 51.542 183.391 51.3647 183.521 51.15C183.661 50.9353 183.797 50.7393 183.927 50.562C184.067 50.3753 184.165 50.268 184.221 50.24C184.221 50.24 184.273 50.2213 184.375 50.184C184.478 50.1467 184.609 50.086 184.767 50.002C184.814 49.9833 184.865 49.9647 184.921 49.946C184.987 49.9273 185.052 49.9133 185.117 49.904C185.183 49.8947 185.239 49.8947 185.285 49.904C185.472 49.9133 185.663 49.9833 185.859 50.114C186.065 50.2353 186.233 50.38 186.363 50.548C186.494 50.7067 186.536 50.8467 186.489 50.968C186.489 50.9867 186.461 51.024 186.405 51.08C186.359 51.1267 186.303 51.178 186.237 51.234C186.181 51.2807 186.135 51.3273 186.097 51.374C186.051 51.43 185.985 51.4533 185.901 51.444C185.827 51.4347 185.757 51.3973 185.691 51.332C185.635 51.2573 185.603 51.164 185.593 51.052C185.575 50.9773 185.505 50.9073 185.383 50.842C185.271 50.7767 185.215 50.744 185.215 50.744C185.141 50.744 185.033 50.814 184.893 50.954C184.763 51.0847 184.632 51.2433 184.501 51.43C184.333 51.598 184.189 51.7987 184.067 52.032C183.946 52.256 183.848 52.4707 183.773 52.676C183.708 52.872 183.661 53.012 183.633 53.096C183.596 53.1893 183.591 53.32 183.619 53.488C183.647 53.656 183.68 53.7587 183.717 53.796C183.755 53.8147 183.848 53.8193 183.997 53.81C184.156 53.8007 184.343 53.782 184.557 53.754C184.772 53.7167 184.982 53.6747 185.187 53.628C185.393 53.5813 185.561 53.53 185.691 53.474C185.869 53.362 186.023 53.2967 186.153 53.278C186.284 53.2593 186.382 53.2593 186.447 53.278C186.55 53.3153 186.611 53.3667 186.629 53.432C186.648 53.4973 186.625 53.572 186.559 53.656C186.494 53.7307 186.382 53.81 186.223 53.894C186.074 53.9687 185.939 54.0527 185.817 54.146C185.705 54.23 185.649 54.2953 185.649 54.342C185.612 54.342 185.57 54.356 185.523 54.384C185.486 54.4027 185.453 54.4073 185.425 54.398C185.407 54.398 185.332 54.412 185.201 54.44C185.071 54.468 184.935 54.5007 184.795 54.538C184.665 54.5753 184.576 54.608 184.529 54.636ZM188.24 54.244C188.175 54.2533 188.105 54.2533 188.03 54.244C187.965 54.2253 187.899 54.1927 187.834 54.146C187.759 54.0713 187.708 54.0153 187.68 53.978C187.652 53.9313 187.643 53.8613 187.652 53.768C187.671 53.6747 187.703 53.53 187.75 53.334C187.797 53.1847 187.853 52.9793 187.918 52.718C187.983 52.4473 188.053 52.1813 188.128 51.92C188.156 51.7707 188.193 51.6167 188.24 51.458C188.296 51.2993 188.352 51.1547 188.408 51.024C188.464 50.884 188.506 50.7767 188.534 50.702C188.609 50.4407 188.679 50.212 188.744 50.016C188.819 49.82 188.907 49.596 189.01 49.344C189.113 49.0827 189.239 48.7373 189.388 48.308C189.593 47.748 189.747 47.3233 189.85 47.034C189.962 46.7353 190.041 46.5207 190.088 46.39C190.144 46.25 190.181 46.1427 190.2 46.068C190.2 45.9933 190.219 45.9373 190.256 45.9C190.303 45.8627 190.359 45.844 190.424 45.844C190.555 45.844 190.657 45.9093 190.732 46.04C190.816 46.1613 190.867 46.3107 190.886 46.488C190.905 46.656 190.877 46.8147 190.802 46.964C190.653 47.3 190.494 47.7013 190.326 48.168C190.158 48.6253 189.995 49.078 189.836 49.526C189.677 49.9647 189.528 50.338 189.388 50.646C189.388 50.6833 189.374 50.7487 189.346 50.842C189.318 50.9353 189.285 51.0193 189.248 51.094C189.211 51.1687 189.173 51.2387 189.136 51.304C189.108 51.3693 189.094 51.402 189.094 51.402C189.094 51.4393 189.08 51.5093 189.052 51.612C189.024 51.7147 188.987 51.8407 188.94 51.99C188.903 52.102 188.856 52.2467 188.8 52.424C188.753 52.6013 188.721 52.7507 188.702 52.872C188.749 52.788 188.847 52.662 188.996 52.494C189.145 52.326 189.285 52.1813 189.416 52.06C189.565 51.9293 189.733 51.7847 189.92 51.626C190.107 51.4673 190.256 51.3507 190.368 51.276C190.48 51.2013 190.578 51.136 190.662 51.08C190.755 51.0147 190.802 50.982 190.802 50.982C190.802 50.9447 190.816 50.926 190.844 50.926C190.881 50.9167 190.919 50.912 190.956 50.912C190.993 50.912 191.012 50.9073 191.012 50.898C191.021 50.8887 191.026 50.8653 191.026 50.828C191.026 50.7813 191.077 50.7393 191.18 50.702C191.292 50.6647 191.418 50.6367 191.558 50.618C191.707 50.59 191.829 50.576 191.922 50.576C192.034 50.576 192.123 50.5993 192.188 50.646C192.253 50.6927 192.337 50.7953 192.44 50.954C192.552 51.1033 192.622 51.2853 192.65 51.5C192.687 51.7053 192.669 51.92 192.594 52.144C192.594 52.2187 192.58 52.326 192.552 52.466C192.533 52.5967 192.524 52.7367 192.524 52.886L192.44 53.334H192.664C192.739 53.334 192.809 53.348 192.874 53.376C192.939 53.3947 192.972 53.404 192.972 53.404C193.009 53.4413 193.047 53.4787 193.084 53.516C193.121 53.544 193.159 53.558 193.196 53.558C193.308 53.558 193.35 53.6047 193.322 53.698C193.294 53.782 193.224 53.8613 193.112 53.936C192.888 54.0853 192.683 54.16 192.496 54.16C192.319 54.16 192.155 54.0853 192.006 53.936C191.857 53.7773 191.763 53.6 191.726 53.404C191.689 53.208 191.707 52.9607 191.782 52.662C191.819 52.2513 191.838 51.9527 191.838 51.766C191.847 51.57 191.801 51.472 191.698 51.472C191.605 51.472 191.441 51.5373 191.208 51.668C190.975 51.7893 190.713 51.9573 190.424 52.172C190.135 52.3867 189.85 52.6247 189.57 52.886C189.29 53.1473 189.057 53.418 188.87 53.698C188.758 53.838 188.651 53.964 188.548 54.076C188.445 54.1787 188.343 54.2347 188.24 54.244ZM195.42 54.594C195.345 54.6127 195.247 54.622 195.126 54.622C195.005 54.6127 194.897 54.5987 194.804 54.58C194.72 54.552 194.678 54.524 194.678 54.496C194.678 54.4493 194.655 54.426 194.608 54.426C194.608 54.426 194.585 54.4073 194.538 54.37C194.501 54.3327 194.44 54.2953 194.356 54.258C194.272 54.1273 194.23 53.9873 194.23 53.838C194.23 53.6793 194.272 53.432 194.356 53.096C194.384 52.8627 194.473 52.592 194.622 52.284C194.781 51.9667 194.972 51.6447 195.196 51.318C195.42 50.9913 195.653 50.6973 195.896 50.436C196.148 50.1747 196.377 49.9833 196.582 49.862C196.713 49.7313 196.871 49.6613 197.058 49.652C197.245 49.6427 197.422 49.6847 197.59 49.778C197.683 49.8247 197.777 49.8993 197.87 50.002C197.963 50.1047 198.052 50.2167 198.136 50.338C198.22 50.4593 198.29 50.5807 198.346 50.702C198.374 50.8047 198.388 50.898 198.388 50.982C198.397 51.0567 198.397 51.15 198.388 51.262C198.388 51.374 198.374 51.542 198.346 51.766C198.299 51.934 198.257 52.1393 198.22 52.382C198.192 52.6247 198.178 52.8347 198.178 53.012C198.159 53.1893 198.178 53.3153 198.234 53.39C198.299 53.4647 198.393 53.4693 198.514 53.404C198.626 53.348 198.733 53.3247 198.836 53.334C198.939 53.334 199.018 53.362 199.074 53.418C199.139 53.474 199.172 53.558 199.172 53.67C199.172 53.782 199.116 53.8987 199.004 54.02C198.901 54.132 198.771 54.23 198.612 54.314C198.463 54.3887 198.318 54.426 198.178 54.426C198.075 54.426 197.977 54.3653 197.884 54.244C197.791 54.1133 197.707 53.9593 197.632 53.782C197.567 53.5953 197.506 53.418 197.45 53.25L197.366 52.928L196.764 53.502C196.643 53.6327 196.521 53.754 196.4 53.866C196.288 53.9687 196.218 54.0433 196.19 54.09C196.143 54.174 196.055 54.258 195.924 54.342C195.803 54.426 195.635 54.51 195.42 54.594ZM195.462 53.768C195.621 53.6747 195.803 53.5393 196.008 53.362C196.213 53.1753 196.414 52.9747 196.61 52.76C196.806 52.536 196.969 52.3307 197.1 52.144C197.259 51.9293 197.38 51.7287 197.464 51.542C197.548 51.3553 197.609 51.178 197.646 51.01C197.609 50.9073 197.548 50.8 197.464 50.688C197.38 50.5667 197.305 50.5013 197.24 50.492C197.035 50.492 196.815 50.6227 196.582 50.884C196.358 51.136 196.139 51.4113 195.924 51.71C195.887 51.7567 195.835 51.8313 195.77 51.934C195.705 52.0367 195.639 52.1347 195.574 52.228C195.518 52.312 195.481 52.368 195.462 52.396C195.434 52.4333 195.378 52.5407 195.294 52.718C195.219 52.886 195.145 53.0587 195.07 53.236C194.995 53.404 194.958 53.516 194.958 53.572C194.958 53.628 194.963 53.6887 194.972 53.754C194.991 53.8193 195.037 53.8613 195.112 53.88C195.187 53.8987 195.303 53.8613 195.462 53.768ZM200.115 54.314C200.078 54.314 200.031 54.3047 199.975 54.286C199.929 54.258 199.905 54.244 199.905 54.244C199.905 54.2067 199.891 54.16 199.863 54.104C199.845 54.048 199.835 54.0013 199.835 53.964C199.77 53.9267 199.733 53.8893 199.723 53.852C199.714 53.8053 199.728 53.7307 199.765 53.628C199.821 53.5347 199.896 53.3853 199.989 53.18C200.083 52.9653 200.181 52.7367 200.283 52.494C200.386 52.242 200.484 51.9947 200.577 51.752C200.671 51.5093 200.75 51.304 200.815 51.136C200.881 50.9587 200.918 50.8513 200.927 50.814C200.927 50.7767 200.941 50.73 200.969 50.674C200.997 50.618 201.03 50.5713 201.067 50.534C201.142 50.4687 201.221 50.464 201.305 50.52C201.389 50.5667 201.459 50.6507 201.515 50.772C201.581 50.884 201.613 51.01 201.613 51.15C201.613 51.2153 201.567 51.3833 201.473 51.654C201.38 51.9153 201.254 52.228 201.095 52.592C200.946 52.956 200.778 53.3247 200.591 53.698C200.451 53.9687 200.363 54.1413 200.325 54.216C200.288 54.2813 200.218 54.314 200.115 54.314ZM202.173 49.008C202.061 49.008 201.94 48.966 201.809 48.882C201.688 48.7887 201.581 48.6767 201.487 48.546C201.403 48.406 201.361 48.266 201.361 48.126C201.361 48.0793 201.389 48.014 201.445 47.93C201.501 47.846 201.557 47.762 201.613 47.678C201.669 47.594 201.697 47.5427 201.697 47.524C201.772 47.524 201.828 47.5287 201.865 47.538C201.912 47.538 201.968 47.5567 202.033 47.594C202.136 47.8273 202.262 48.0187 202.411 48.168C202.57 48.3173 202.649 48.4433 202.649 48.546C202.649 48.7513 202.631 48.882 202.593 48.938C202.556 48.9847 202.416 49.008 202.173 49.008ZM206.801 54.832C206.707 54.832 206.609 54.7807 206.507 54.678C206.413 54.5753 206.329 54.4493 206.255 54.3C206.189 54.1413 206.157 53.992 206.157 53.852C206.157 53.712 206.189 53.4507 206.255 53.068C206.329 52.6853 206.418 52.298 206.521 51.906C206.595 51.6633 206.619 51.5233 206.591 51.486C206.563 51.4487 206.437 51.5 206.213 51.64C206.082 51.7053 205.965 51.7753 205.863 51.85C205.76 51.9153 205.671 51.99 205.597 52.074C205.55 52.1113 205.48 52.172 205.387 52.256C205.293 52.34 205.195 52.4193 205.093 52.494C204.971 52.5873 204.817 52.718 204.631 52.886C204.444 53.054 204.257 53.222 204.071 53.39C203.893 53.558 203.758 53.6887 203.665 53.782C203.646 53.8193 203.618 53.852 203.581 53.88C203.543 53.908 203.501 53.9267 203.455 53.936C203.408 53.936 203.357 53.9267 203.301 53.908C203.198 53.88 203.1 53.8193 203.007 53.726C202.923 53.6327 202.881 53.5253 202.881 53.404C202.881 53.3107 202.918 53.152 202.993 52.928C203.067 52.6947 203.165 52.4147 203.287 52.088C203.417 51.7613 203.567 51.416 203.735 51.052C203.763 51.0053 203.786 50.9493 203.805 50.884C203.823 50.8093 203.837 50.73 203.847 50.646C203.865 50.562 203.875 50.4827 203.875 50.408C203.875 50.3613 203.879 50.3147 203.889 50.268C203.907 50.212 203.926 50.1607 203.945 50.114C203.973 50.058 203.996 50.0207 204.015 50.002C204.052 49.9273 204.117 49.9087 204.211 49.946C204.304 49.974 204.383 50.0393 204.449 50.142C204.589 50.2727 204.659 50.436 204.659 50.632C204.668 50.828 204.621 51.0707 204.519 51.36C204.481 51.4253 204.449 51.4907 204.421 51.556C204.402 51.612 204.383 51.6633 204.365 51.71C204.346 51.7473 204.332 51.78 204.323 51.808C204.313 51.8267 204.309 51.836 204.309 51.836C204.346 51.836 204.43 51.794 204.561 51.71C204.691 51.626 204.845 51.5327 205.023 51.43C205.163 51.3273 205.284 51.234 205.387 51.15C205.499 51.0567 205.592 50.9867 205.667 50.94C205.741 50.884 205.788 50.856 205.807 50.856C205.844 50.856 205.891 50.842 205.947 50.814C206.003 50.786 206.049 50.7533 206.087 50.716C206.124 50.6787 206.152 50.66 206.171 50.66C206.199 50.6507 206.213 50.646 206.213 50.646C206.213 50.646 206.231 50.646 206.269 50.646C206.306 50.6367 206.343 50.6133 206.381 50.576C206.455 50.52 206.553 50.506 206.675 50.534C206.796 50.5527 206.908 50.5993 207.011 50.674C207.113 50.7487 207.165 50.8327 207.165 50.926C207.165 50.9633 207.174 50.996 207.193 51.024C207.221 51.0427 207.235 51.052 207.235 51.052C207.309 51.052 207.356 51.1687 207.375 51.402C207.403 51.6353 207.379 51.8593 207.305 52.074C207.305 52.214 207.277 52.382 207.221 52.578C207.174 52.774 207.132 52.9607 207.095 53.138C207.02 53.3713 206.969 53.5767 206.941 53.754C206.913 53.9313 206.908 54.0807 206.927 54.202C206.945 54.3233 206.978 54.4213 207.025 54.496C207.062 54.5613 207.062 54.636 207.025 54.72C206.987 54.7947 206.913 54.832 206.801 54.832Z" fill="#EB5757"/>
<line x1="212" y1="52.5" x2="235" y2="52.5" stroke="#F2F2F2"/>
<line x1="115" y1="52.5" x2="138" y2="52.5" stroke="#F2F2F2"/>
</svg>
