<svg width="133" height="154" viewBox="0 0 133 154" fill="none" xmlns="http://www.w3.org/2000/svg">
<mask id="mask0_1168_1400" style="mask-type:luminance" maskUnits="userSpaceOnUse" x="0" y="0" width="133" height="154">
<path d="M132.089 0.196777H0.165039V153.124H132.089V0.196777Z" fill="white"/>
</mask>
<g mask="url(#mask0_1168_1400)">
<path d="M67.2806 143.948C61.883 149.444 54.8838 150.736 47.9141 152C41.8396 153.213 35.5753 153.107 29.5451 151.69C17.8065 148.771 4.57947 138.284 3.04889 120.811C2.19565 111.085 1.54855 101.373 1.65881 91.5812C1.77696 81.0451 1.02082 70.5016 0.867238 59.9575C0.774038 53.5661 0.459641 47.0743 1.38048 40.7925C2.93731 30.1736 4.61289 19.3834 12.6294 11.126C19.2289 4.32838 26.9908 -0.0193188 36.7322 0.315413C39.3015 0.43463 41.8328 0.982337 44.2216 1.93591C50.5523 4.40067 55.9535 8.78412 59.6684 14.472C66.0625 24.0821 69.7104 34.7338 71.2029 46.1206C71.9452 51.7769 72.3705 57.4752 72.9717 63.4788C74.012 63.2011 75.0458 62.9452 76.0677 62.6492C88.1778 59.1365 100.174 59.181 112.064 63.6795C115.187 64.804 118.044 66.561 120.456 68.8411C122.868 71.1206 124.784 73.8739 126.083 76.9278C131.465 88.95 133.302 101.368 130.468 114.339C128.525 123.221 124.112 130.547 116.775 136.04C106.952 143.395 95.9803 147.434 83.649 147.407C78.0944 147.399 72.761 146.07 67.2806 143.948ZM9.07737 74.1706C15.0179 74.1706 20.5108 74.2539 26.0004 74.1529C36.0975 73.9665 46.1926 73.6862 56.2871 73.3941C57.0284 73.3515 57.7413 73.0942 58.3388 72.6531C60.0586 71.3956 61.7001 70.0337 63.2541 68.576C63.925 67.9209 64.3383 67.046 64.4191 66.1121C64.4847 62.0722 64.4684 58.0246 64.2912 53.9881C63.7786 42.3238 61.6809 31.0425 56.0115 20.6408C53.6313 16.16 50.1425 12.3639 45.8782 9.61452C40.2304 5.97909 34.2952 5.42837 28.2155 8.05113C21.0253 11.1536 15.5055 16.3209 12.6084 23.5793C9.38243 31.5094 7.7412 39.9945 7.77723 48.5556C7.84943 56.0706 8.36787 63.5812 8.71573 71.0923C8.76233 72.0828 8.94413 73.0679 9.07737 74.1706ZM59.5669 139.832C57.7429 138.306 56.3303 137.201 55.0045 135.999C50.079 131.685 46.529 126.021 44.7953 119.707C41.4289 107.203 43.7812 95.5147 49.7394 84.3222C50.3045 83.2615 50.8729 82.2022 51.4754 81.0752C45.8158 80.222 12.3892 80.7248 9.33859 81.7119C9.33859 83.442 9.27624 85.2233 9.3504 86.9987C9.56109 92.0407 9.73239 97.0879 10.096 102.119C10.5804 108.82 11.0733 115.527 11.8478 122.198C13.1138 133.098 23.3015 142.336 32.9083 144.047C41.1066 145.508 48.9584 144.08 56.6842 141.448C57.6888 140.992 58.6532 140.451 59.5669 139.832ZM116.221 78.864C114.381 75.6979 111.507 73.2616 108.083 71.9646C103.927 70.3015 99.709 68.7486 95.4191 67.4792C92.7715 66.6975 89.858 65.8928 87.2064 66.2263C80.5984 66.9463 74.245 69.1778 68.6386 72.7489C59.5956 78.6763 54.807 87.5343 51.8863 97.5769C49.7328 104.982 49.7152 112.413 52.3609 119.741C52.8329 121.047 53.4976 122.284 54.0817 123.572C74.096 107.265 95.918 94.2145 116.221 78.864ZM58.3632 129.305C64.7664 135.514 71.7956 138.972 79.9867 139.79C91.8848 140.977 102.302 137.051 111.641 129.945C116.634 126.196 120.11 120.776 121.434 114.674C122.863 108.305 123.037 101.719 121.947 95.283C121.513 92.592 120.716 89.9634 119.962 86.7893L58.3632 129.305Z" fill="#BDC0C9"/>
</g>
</svg>
