<svg width="26" height="25" viewBox="0 0 26 25" fill="none" xmlns="http://www.w3.org/2000/svg">
<path fill-rule="evenodd" clip-rule="evenodd" d="M0 5.35294C0 2.39659 2.39659 0 5.35294 0C8.30929 0 10.7059 2.39659 10.7059 5.35294V19.6471C10.7059 22.6034 8.30929 25 5.35294 25C2.39659 25 0 22.6034 0 19.6471V5.35294ZM13.7647 5.55556C13.7647 2.48731 16.252 0 19.3203 0H20.4444C23.5127 0 26 2.48731 26 5.55556C26 8.6238 23.5127 11.1111 20.4444 11.1111H19.3203C16.252 11.1111 13.7647 8.6238 13.7647 5.55556ZM19.3203 13.8889C16.252 13.8889 13.7647 16.3762 13.7647 19.4444C13.7647 22.5127 16.252 25 19.3203 25H20.4444C23.5127 25 26 22.5127 26 19.4444C26 16.3762 23.5127 13.8889 20.4444 13.8889H19.3203Z" fill="#BDC0C9"/>
</svg>
